<svg width="45" height="54" viewBox="0 0 45 54" fill="none" xmlns="http://www.w3.org/2000/svg">
<path d="M40.8719 23.2371C41.4039 19.8669 41.1537 16.2192 40.6856 13.393C39.6819 7.33921 37.273 3.07776 37.273 3.07776L36.148 7.78328L36.0378 8.24616C36.0295 8.05714 36.0005 7.84801 35.9805 7.64479C35.7115 5.0781 34.5576 1.60115 34.5576 1.60115C31.9663 2.8312 27.7156 2.70856 27.7156 2.70856C28.8922 1.84624 31.9663 0.98668 31.9663 0.98668C24.3088 -1.41993 19.4129 1.09788 17.03 2.99274C16.5154 3.4038 16.1162 3.78001 15.8325 4.07563L16.706 3.07057L18.5193 0.98668C14.8638 1.34426 12.2005 3.80749 10.5809 5.81908C9.41283 7.26987 8.77063 8.49273 8.77063 8.49273L9.08295 6.89053L9.75676 3.44696C7.24365 5.45136 5.7285 8.36567 4.80006 11.3394C3.34741 15.9975 3.2396 21.5067 3.30303 23.2221C1.84686 23.8226 0.750347 25.178 0.271245 26.9816C-0.182709 28.702 -0.0641827 30.7079 0.606671 32.6273C1.6651 35.6583 3.91749 37.8864 6.37013 38.3854C8.30189 42.5213 11.2745 46.7062 14.9851 49.2209L15.3379 50.6745C15.812 52.6257 17.5644 54 19.5773 54H24.9331C26.9458 54 28.6984 52.6257 29.1729 50.6745L29.6037 48.898C33.0998 46.3599 35.911 42.3625 37.7645 38.3996C40.1796 37.9279 42.4696 35.6871 43.5396 32.6271C44.971 28.5119 43.798 24.4619 40.8719 23.2371ZM26.5327 45.6724C26.1335 45.9837 25.5984 46.0571 25.13 45.8669C24.6616 45.6764 24.3319 45.2512 24.265 44.7509L23.9297 42.2402C23.8948 41.9977 23.6895 41.8176 23.444 41.8176H21.067C20.821 41.8176 20.6156 41.9977 20.5808 42.2402L20.2454 44.7509C20.1794 45.2512 19.8491 45.6764 19.3808 45.8669C18.9124 46.0571 18.3775 45.9835 17.9784 45.6724L15.7314 43.9201L16.6484 41.346C17.2728 39.5956 18.9327 38.426 20.7951 38.426H23.736C25.5984 38.426 27.2585 39.5956 27.8831 41.346L28.7968 43.9072L26.5327 45.6724ZM40.7434 31.6569C39.861 34.1776 38.0683 35.5373 36.796 35.5373C36.0817 35.5388 35.6479 35.8779 35.4106 36.4242C34.2945 38.9783 32.7298 41.5797 30.8557 43.7399L30.9573 43.3257C30.9717 43.2667 30.9515 43.2105 30.9456 43.1525C31.041 42.6552 31.1074 42.1491 31.1074 41.6258C31.1074 36.9533 27.1455 33.1635 22.2554 33.1635C17.371 33.1635 13.4091 36.9533 13.4091 41.6258C13.4091 42.1447 13.4727 42.6467 13.5655 43.1385C13.5565 43.2005 13.5393 43.2626 13.5539 43.3257L13.7967 44.3251C11.6887 42.0669 9.94777 39.2101 8.72995 36.424C8.49567 35.8848 7.90026 35.5371 7.3104 35.5371C6.07261 35.5371 4.2825 34.1775 3.40307 31.6567C2.93173 30.3042 2.83354 28.875 3.13439 27.7355C3.28176 27.1861 3.65195 26.2198 4.51363 25.9216C4.60646 25.8897 4.78841 25.8712 4.87828 25.8622C5.60978 25.7916 6.17949 25.1963 6.21407 24.4634C6.24624 23.7814 6.32797 23.1231 6.49199 22.4778C8.69907 13.7899 16.2896 13.1691 16.2896 13.1691C15.413 15.4756 12.7181 17.7218 12.7181 17.7218C19.9969 14.7684 22.2644 11.5684 22.2644 11.5684C27.1082 18.2754 33.7827 21.1856 37.6377 22.3782C37.7505 23.0676 37.8612 23.7508 37.9267 24.4632C37.9938 25.1937 38.5312 25.7914 39.2629 25.862C39.3525 25.8709 39.5349 25.8895 39.6301 25.9214C40.9398 26.3774 41.7207 28.846 40.7434 31.6569Z" fill="white"/>
</svg>
