<svg width="90" height="90" viewBox="0 0 90 90" fill="none" xmlns="http://www.w3.org/2000/svg">
<path d="M28.5469 22.4297C28.248 22.1836 27.8438 22.0254 27.4219 22.0254C26.4551 22.0254 25.6641 22.8164 25.6641 23.7832C25.6641 24.6094 26.2441 25.3125 27 25.4883C27.1406 25.5234 27.2812 25.541 27.4219 25.541C28.3887 25.541 29.1797 24.75 29.1797 23.7832C29.1797 23.2383 28.9336 22.7637 28.5469 22.4297ZM55.4238 30.0586C55.2129 29.4258 54.668 28.9512 54 28.8633L48.8672 28.125L46.582 23.4668C46.2832 22.8691 45.668 22.4824 45 22.4824C44.332 22.4824 43.7168 22.8691 43.418 23.4668L41.1328 28.125L36 28.8633C35.332 28.9512 34.7871 29.4258 34.5762 30.0586C34.3652 30.6914 34.541 31.3945 35.0156 31.8691L38.7246 35.4902L37.8457 40.6055C37.7402 41.2734 38.0039 41.9238 38.5488 42.3281C39.0938 42.7148 39.8145 42.7676 40.3945 42.4688L44.9824 40.0605L49.5703 42.4688C50.1504 42.7852 50.8711 42.7324 51.416 42.3281C51.9609 41.9414 52.2246 41.2734 52.1191 40.6055L51.2402 35.4902L54.9492 31.8691C55.459 31.3945 55.6348 30.6914 55.4238 30.0586ZM48.1465 33.627C47.7246 34.0312 47.5488 34.6113 47.6367 35.1914L48.0762 37.7051L45.8086 36.5098C45.2988 36.2461 44.6836 36.2461 44.1738 36.5098L41.9062 37.7051L42.3457 35.1914C42.4512 34.6289 42.2578 34.0312 41.8359 33.627L40.0078 31.8516L42.5391 31.4648C43.1191 31.377 43.6113 31.0254 43.8574 30.498L44.9824 28.2129L46.1074 30.498C46.3711 31.0254 46.8633 31.377 47.4258 31.4648L49.957 31.834L48.1465 33.627Z" fill="#9A8A74"/>
<path d="M45 11.4785C36.1757 11.4785 30.832 16.998 30.709 17.0684C29.9882 17.7187 29.9355 18.8262 30.5859 19.5469C31.2363 20.2676 32.3437 20.3203 33.0644 19.6699C36.58 16.4883 40.7636 14.9941 44.9824 14.9941C54.6679 14.9941 62.5605 22.8867 62.5605 32.5723C62.5605 42.2402 54.7207 50.1504 44.9824 50.1504C35.0332 50.1504 26.9297 41.8359 27.4218 31.6758C27.4394 31.377 27.457 31.0781 27.4922 30.7793C27.58 29.8125 26.8769 28.9512 25.9101 28.8633C24.9433 28.7754 24.082 29.4785 23.9941 30.4453C23.959 30.7969 23.9414 31.1484 23.9062 31.5C23.3437 43.6641 33.0468 53.666 45 53.666C56.7246 53.666 66.0937 44.1211 66.0937 32.5723C66.0937 20.9355 56.6367 11.4785 45 11.4785Z" fill="#9A8A74"/>
<path d="M77.2031 31.5L72.3516 25.2422L73.4238 17.4023C73.5293 16.6113 73.0898 15.8379 72.3516 15.5391L65.0215 12.5508L62.0332 5.2207C61.7344 4.48242 60.9609 4.02539 60.1699 4.14844L52.3301 5.2207L46.0723 0.369141C45.4395 -0.123047 44.5606 -0.123047 43.9102 0.369141L37.6523 5.2207L29.8125 4.14844C29.0215 4.04297 28.248 4.48242 27.9492 5.2207L24.9609 12.5508L17.6309 15.5391C16.8926 15.8379 16.4531 16.6113 16.5586 17.4023L17.6309 25.2422L12.7793 31.5C12.2871 32.1328 12.2871 33.0117 12.7793 33.6621L17.6309 39.9199L16.5586 47.7598C16.4531 48.5508 16.8926 49.3242 17.6309 49.623L24.9609 52.6113L27.9492 59.9414C28.248 60.6797 29.0215 61.1367 29.8125 61.0137L32.6777 60.627V88.2422C32.6777 88.9453 33.0996 89.5957 33.7676 89.8594C34.418 90.123 35.1738 89.9824 35.6836 89.4727L44.9824 80.1738L54.2812 89.4727C54.791 89.9824 55.5469 90.123 56.1973 89.8594C56.8477 89.5957 57.2871 88.9453 57.2871 88.2422V60.6094L60.1523 60.9961C60.9434 61.1016 61.7168 60.6621 62.0156 59.9238L65.0039 52.5938L72.334 49.6055C73.0723 49.3066 73.5117 48.5332 73.4062 47.7422L72.334 39.9023L77.1855 33.6445C77.6953 33.0117 77.6953 32.1328 77.2031 31.5ZM53.7891 84.0059L46.2481 76.4648C45.5625 75.7793 44.4551 75.7793 43.7695 76.4648L36.2109 84.0059V60.1348L37.6699 59.9414L43.9277 64.793C44.2441 65.0391 44.6309 65.1621 45 65.1621C45.3867 65.1621 45.7559 65.0391 46.0723 64.793L52.3301 59.9414L53.7891 60.1348V84.0059ZM69.1172 38.3379C68.8359 38.707 68.6953 39.1816 68.7656 39.6562L69.75 46.8809L63 49.6406C62.5605 49.8164 62.209 50.168 62.0332 50.6074L59.2734 57.3574L56.2148 56.9355C55.9336 56.8125 55.6348 56.7773 55.3008 56.8125L52.0488 56.3731C51.5742 56.3027 51.0996 56.4434 50.7305 56.7246L45 61.1719L39.2344 56.707C38.8652 56.4258 38.3906 56.2852 37.916 56.3555L30.6914 57.3398L27.9492 50.5898C27.7734 50.1504 27.4219 49.7988 26.9824 49.623L20.2324 46.8633L21.2168 39.6387C21.2871 39.1641 21.1465 38.6895 20.8652 38.3203L16.4004 32.5547L20.8652 26.7891C21.1465 26.4199 21.2871 25.9453 21.2168 25.4707L20.2324 18.2461L26.9824 15.4863C27.4219 15.3105 27.7734 14.959 27.9492 14.5195L30.709 7.76953L37.9336 8.75391C38.4082 8.82422 38.8828 8.68359 39.252 8.40234L45 3.99023L50.7656 8.45508C51.1348 8.73633 51.6094 8.87695 52.084 8.80664L59.3086 7.82227L62.0508 14.5547C62.2266 14.9941 62.5781 15.3457 63.0176 15.5215L69.7676 18.2812L68.7832 25.5059C68.7129 25.9805 68.8535 26.4551 69.1348 26.8242L73.5996 32.5898L69.1172 38.3379Z" fill="#9A8A74"/>
</svg>
