<svg width="90" height="90" viewBox="0 0 90 90" fill="none" xmlns="http://www.w3.org/2000/svg">
<path d="M85.2012 34.9804H71.8066V31.5175C71.8066 30.6211 71.0684 29.8828 70.1719 29.8828H34.8574C33.9609 29.8828 33.2227 30.6211 33.2227 31.5175C33.2227 32.414 33.9609 33.1523 34.8574 33.1523H68.5371V45.6855C68.5371 56.6894 62.6484 66.9199 53.1738 72.4921H21.7969C12.3047 66.9199 6.41602 56.6894 6.41602 45.6855V33.1523H17.3672C18.2637 33.1523 19.002 32.414 19.002 31.5175C19.002 30.6211 18.2637 29.8828 17.3672 29.8828H4.78125C3.88477 29.8828 3.14648 30.6211 3.14648 31.5175V45.6855C3.14648 51.8554 4.81641 57.9199 7.94531 63.2109C10.0723 66.7793 12.8145 69.9082 16.0312 72.4921H4.78125C3.88477 72.4921 3.14648 73.2304 3.14648 74.1269C3.14648 80.0683 7.98047 84.9199 13.9395 84.9199H64.9336C70.875 84.9199 75.7266 80.0859 75.7266 74.1269C75.7266 73.2304 74.9883 72.4921 74.0918 72.4921H58.9043C61.8574 70.1191 64.4238 67.2539 66.4805 64.0371H71.0859C79.7695 64.0371 86.8184 56.9707 86.8184 48.3046V36.6152C86.8359 35.7187 86.1152 34.9804 85.2012 34.9804ZM72.2812 75.7617C71.5254 79.1367 68.5195 81.6504 64.9336 81.6504H13.9395C10.3535 81.6504 7.34766 79.1367 6.5918 75.7617H72.2812ZM71.8066 45.6855V44.789H77.0449V48.3046C77.0449 51.5742 74.373 54.2461 71.1035 54.2461H70.7344C71.4375 51.4511 71.8066 48.5683 71.8066 45.6855ZM83.5664 48.3046C83.5664 55.1777 77.9766 60.7675 71.1035 60.7675H68.3262C68.8535 59.7129 69.3105 58.6054 69.7148 57.498H71.1035C76.1836 57.498 80.3144 53.3671 80.3144 48.2871V43.1367C80.3144 42.2402 79.5762 41.5019 78.6797 41.5019H71.8066V38.2324H83.584V48.3046H83.5664ZM39.041 10.2656L38.1973 9.2109C36.9492 7.64645 36.9492 5.44918 38.1973 3.88473C38.7598 3.1816 38.6367 2.14449 37.9336 1.59957C37.2305 1.05465 36.1934 1.16012 35.6309 1.86324C34.564 3.19829 33.9829 4.85644 33.9829 6.56539C33.9829 8.27434 34.564 9.93249 35.6309 11.2675L36.4746 12.3222C38.1094 14.3613 38.1094 17.2265 36.4746 19.2832L35.6133 20.373C35.0508 21.0761 35.1738 22.1132 35.877 22.6582C36.1758 22.9043 36.5273 23.0097 36.8965 23.0097C37.3711 23.0097 37.8633 22.7988 38.1797 22.3945L39.041 21.3046C41.625 18.0351 41.625 13.5175 39.041 10.2656ZM48.1113 13.9394L47.2676 12.8847C46.0195 11.3203 46.0195 9.12301 47.2676 7.55855C47.8301 6.85543 47.707 5.81832 47.0039 5.2734C46.3008 4.7109 45.2637 4.83395 44.7012 5.53707C43.6343 6.87212 43.0532 8.53027 43.0532 10.2392C43.0532 11.9482 43.6343 13.6063 44.7012 14.9414L45.5449 15.9961C47.1797 18.0351 47.1797 20.9004 45.5449 22.957L44.6836 24.0468C44.1211 24.75 44.2441 25.7871 44.9473 26.332C45.2461 26.5781 45.5977 26.6836 45.9668 26.6836C46.4414 26.6836 46.9336 26.4726 47.25 26.0683L48.1113 24.9785C50.6953 21.7265 50.6953 17.1914 48.1113 13.9394ZM29.9707 13.9394L29.127 12.8847C27.8789 11.3203 27.8789 9.12301 29.127 7.55855C29.6895 6.85543 29.5664 5.81832 28.8633 5.2734C28.1602 4.7109 27.123 4.83395 26.5605 5.53707C24.3633 8.29684 24.3633 12.1816 26.5781 14.9414L27.4219 15.9961C29.0566 18.0351 29.0566 20.9004 27.4219 22.957L26.5605 24.0468C25.998 24.75 26.1211 25.7871 26.8242 26.3496C27.123 26.5957 27.4746 26.7011 27.8437 26.7011C28.3184 26.7011 28.8105 26.4902 29.127 26.0859L29.9883 24.9961C32.5723 21.7265 32.5547 17.1914 29.9707 13.9394Z" fill="#9A8A74"/>
<path d="M27.7207 30.375C27.4043 30.0586 27 29.9004 26.5605 29.9004C26.1211 29.9004 25.7168 30.0762 25.4004 30.375C25.084 30.6914 24.9258 31.0957 24.9258 31.5352C24.9258 31.9746 25.1016 32.3789 25.4004 32.6953C25.7168 33.0117 26.1211 33.1699 26.5605 33.1699C27 33.1699 27.4043 32.9941 27.7207 32.6953C28.0371 32.3789 28.1953 31.9746 28.1953 31.5352C28.1953 31.0781 28.0195 30.6562 27.7207 30.375ZM62.332 44.0508C61.4355 44.0508 60.6973 44.7891 60.6973 45.6855C60.6973 51.75 58.2363 57.709 53.9473 62.0508C53.3145 62.6836 53.3145 63.7383 53.9648 64.3535C54.2988 64.6699 54.7031 64.8281 55.1074 64.8281C55.5293 64.8281 55.9336 64.6699 56.2676 64.3359C61.1543 59.4141 63.9668 52.6113 63.9668 45.6855C63.9668 44.7891 63.2285 44.0508 62.332 44.0508ZM51.1875 66.4805C50.748 65.6895 49.7461 65.4258 48.9727 65.8652L48.9375 65.8828C48.1465 66.3223 47.8828 67.3242 48.3223 68.0977C48.6211 68.6426 49.166 68.9238 49.7461 68.9238C50.0273 68.9238 50.3086 68.8535 50.5547 68.7129L50.5898 68.6953C51.3633 68.2559 51.627 67.2539 51.1875 66.4805Z" fill="#9A8A74"/>
</svg>
