<svg width="50" height="50" viewBox="0 0 50 50" fill="none" xmlns="http://www.w3.org/2000/svg">
<g clip-path="url(#clip0_18_356)">
<path d="M25 50C38.8071 50 50 38.8071 50 25C50 11.1929 38.8071 0 25 0C11.1929 0 0 11.1929 0 25C0 38.8071 11.1929 50 25 50Z" fill="url(#paint0_linear_18_356)"/>
<path d="M16.9227 26.8275L19.8888 35.037C19.8888 35.037 20.2596 35.8052 20.6567 35.8052C21.0538 35.8052 26.9598 29.661 26.9598 29.661L33.5275 16.9756L17.0286 24.7083L16.9227 26.8275Z" fill="#C8DAEA"/>
<path d="M20.8554 28.9331L20.286 34.9844C20.286 34.9844 20.0477 36.8385 21.9014 34.9844C23.7552 33.1302 25.5296 31.7004 25.5296 31.7004" fill="#A9C6D8"/>
<path d="M16.9763 27.1206L10.875 25.1327C10.875 25.1327 10.1458 24.8369 10.3806 24.166C10.429 24.0277 10.5265 23.91 10.8181 23.7077C12.17 22.7654 35.8402 14.2577 35.8402 14.2577C35.8402 14.2577 36.5085 14.0325 36.9027 14.1823C37.0002 14.2125 37.088 14.268 37.157 14.3432C37.226 14.4184 37.2737 14.5106 37.2954 14.6104C37.338 14.7866 37.3558 14.9678 37.3483 15.1489C37.3465 15.3056 37.3275 15.4508 37.3131 15.6785C37.169 18.0046 32.8548 35.3646 32.8548 35.3646C32.8548 35.3646 32.5967 36.3804 31.6719 36.4152C31.4446 36.4225 31.2182 36.384 31.0061 36.302C30.794 36.22 30.6007 36.0961 30.4375 35.9377C28.6227 34.3766 22.3502 30.1612 20.9642 29.2341C20.9329 29.2128 20.9066 29.1851 20.887 29.1527C20.8673 29.1204 20.8549 29.0842 20.8504 29.0466C20.831 28.9489 20.9373 28.8279 20.9373 28.8279C20.9373 28.8279 31.8594 19.1196 32.15 18.1004C32.1725 18.0214 32.0875 17.9825 31.9733 18.0171C31.2479 18.2839 18.6725 26.2254 17.2846 27.1019C17.1847 27.1321 17.0791 27.1385 16.9763 27.1206Z" fill="white"/>
</g>
<defs>
<linearGradient id="paint0_linear_18_356" x1="25" y1="50" x2="25" y2="0" gradientUnits="userSpaceOnUse">
<stop stop-color="#1D93D2"/>
<stop offset="1" stop-color="#38B0E3"/>
</linearGradient>
<clipPath id="clip0_18_356">
<rect width="50" height="50" fill="white"/>
</clipPath>
</defs>
</svg>
