<svg width="90" height="90" viewBox="0 0 90 90" fill="none" xmlns="http://www.w3.org/2000/svg">
<g clip-path="url(#clip0_2_704)">
<path d="M71.4551 0.140667C69.416 -0.26363 67.3418 0.175823 65.6016 1.37114C63.8438 2.58403 62.6133 4.46489 62.2617 6.55668L58.5879 27.3692C57.4981 25.9629 55.9512 24.9258 54.1406 24.5391C52.0489 24.0997 49.9219 24.5039 48.1641 25.6993C47.6719 26.0332 47.25 26.4024 46.8457 26.8067C45.8614 24.5743 43.875 22.8164 41.3965 22.2891C39.3047 21.8497 37.1778 22.2539 35.4199 23.4493C34.9278 23.7832 34.5059 24.1524 34.1016 24.5567C33.1172 22.3243 31.1309 20.5664 28.6524 20.0391C26.5606 19.5997 24.4336 20.0039 22.6582 21.1993C20.8828 22.3946 19.7051 24.2051 19.336 26.3145L17.5781 36.2813L15.1699 49.9746C15.0469 50.6954 15.5215 51.3809 16.2422 51.5039C16.3125 51.5215 16.4004 51.5215 16.4707 51.5215C17.1035 51.5215 17.6485 51.0645 17.7715 50.4317L19.1778 42.4864C20.3555 43.9805 22.0254 44.9649 23.9239 45.2989C24.3809 45.3868 24.8379 45.4219 25.2949 45.4219C26.877 45.4219 28.4238 44.9297 29.7422 44.0157C30.1641 43.7168 30.5508 43.4004 30.8848 43.0313C31.4002 44.2037 32.1983 45.23 33.2075 46.0183C34.2168 46.8067 35.4057 47.3326 36.668 47.5489C37.125 47.6368 37.5645 47.6719 38.0215 47.6719C39.375 47.6719 40.6934 47.3204 41.8535 46.67C42.1699 47.5664 42.6094 48.4278 43.1719 49.2364C44.7715 51.5391 47.1797 53.0684 49.9395 53.5606L54.7031 54.4043L53.209 62.877C53.086 63.5977 53.5606 64.2832 54.2813 64.4063C54.3516 64.4239 54.4395 64.4239 54.5098 64.4239C55.1426 64.4239 55.6875 63.9668 55.8106 63.334L57.5332 53.5782C57.6563 52.8575 57.1817 52.1719 56.461 52.0489L50.3965 50.9766C48.3223 50.6075 46.5293 49.4649 45.3164 47.7422C44.1035 46.0196 43.6465 43.9278 44.0156 41.8711L44.4199 39.5684L57.375 41.8536H57.4102L68.8535 43.875L61.4707 85.711C61.2774 86.8184 60.2227 87.5567 59.0977 87.3633L19.6875 80.3848C19.1426 80.2969 18.6856 79.9981 18.3692 79.5411C18.0528 79.1016 17.9297 78.5567 18.0352 78.0118L19.3008 70.8047C19.3535 70.4532 19.2832 70.1016 19.0899 69.8204C18.8965 69.5391 18.5801 69.3457 18.2461 69.2754L16.6641 68.9942C15.5039 68.7832 14.7305 67.6758 14.9414 66.5332L16.8574 55.6348C16.9805 54.9141 16.5059 54.2286 15.7852 54.1055C15.0645 53.9825 14.3789 54.4571 14.2559 55.1778L12.3399 66.0762C11.8828 68.6602 13.6231 71.1387 16.2071 71.5957L16.4883 71.6485L15.4512 77.5547C15.2403 78.7852 15.5039 80.0332 16.2246 81.0528C16.9453 82.0723 18.0176 82.7579 19.2481 82.9688L58.6582 89.9121C58.9395 89.9649 59.2031 89.9825 59.4668 89.9825C61.6992 89.9825 63.668 88.3829 64.0723 86.1153L75.5508 20.9883C75.6739 20.2676 75.1992 19.5821 74.4785 19.459C73.7578 19.336 73.0723 19.8106 72.9492 20.5313L69.293 41.2383L59.1328 39.4454L59.4844 37.4766V37.459L64.8633 7.01371C65.1094 5.62504 65.9356 4.35942 67.1133 3.53325C68.2559 2.74223 69.627 2.46098 70.9629 2.70707C73.7051 3.25199 75.5332 5.90629 75.041 8.66606L73.8633 15.3282C73.7403 16.0489 74.2149 16.7344 74.9356 16.8575C75.6563 16.9805 76.3418 16.5059 76.4649 15.7852L77.6426 9.12309C78.3633 4.99223 75.586 0.94926 71.4551 0.140667ZM32.0625 28.7051L30.3223 38.5313C29.8301 41.3262 27.1406 43.2071 24.3457 42.7149C22.9922 42.4688 21.8145 41.7305 21.0235 40.5879C20.2324 39.4629 19.9336 38.0918 20.1621 36.7383L21.2168 30.709L21.9199 26.7539C22.166 25.3653 22.9395 24.17 24.1172 23.3789C24.9785 22.7989 25.9629 22.5 26.9824 22.5C27.3516 22.5 27.7031 22.5352 28.0723 22.6231C30.7793 23.1856 32.5547 25.9278 32.0625 28.7051ZM57.5684 33.2051L56.5489 39.0059L44.2442 36.8438C43.7168 36.7559 43.1895 36.8614 42.75 37.1778C42.3106 37.4766 42.0117 37.9512 41.9238 38.461L41.4141 41.3965C41.2735 42.2227 41.2207 43.0664 41.2735 43.875C40.1133 44.8243 38.6016 45.2286 37.125 44.9649C34.6465 44.5254 32.8711 42.3985 32.8711 39.9024C32.8711 39.6036 32.9063 39.3047 32.959 39.0059L34.7168 29.0391C34.9629 27.6504 35.7363 26.4551 36.9141 25.6641C38.0918 24.8731 39.4981 24.6094 40.8692 24.8907C43.541 25.4532 45.3164 28.1778 44.8418 30.9551L44.5078 32.8536C44.3848 33.5743 44.8594 34.2598 45.5801 34.3829C46.3008 34.5059 46.9864 34.0313 47.1094 33.3106L47.4434 31.4473V31.4121L47.461 31.2891C47.7071 29.9004 48.4805 28.7051 49.6582 27.9141C50.836 27.1231 52.2422 26.8594 53.6133 27.1407C56.2676 27.6856 58.0606 30.4278 57.5684 33.2051Z" fill="#9A8A74"/>
<path d="M32.9766 53.0685L31.6934 52.8399L32.4141 50.9591C32.6075 49.5528 30.3223 49.3419 30.0235 50.0802L29.127 52.4005L27.2637 52.0665L27.9844 50.2032C28.2305 48.7794 25.875 48.586 25.5938 49.3067L24.7149 51.6271L23.0098 51.3282C22.0078 51.1524 21.5157 53.3321 22.6055 53.5255L23.9063 53.754L23.2032 55.5646L21.5157 55.2657C20.4961 55.0899 20.0391 57.2696 21.1114 57.463L22.3946 57.6915L21.5684 59.8536C21.4453 60.5392 22.4649 61.2774 23.5196 61.0138C23.7657 60.9435 23.9239 60.8556 23.9942 60.7149L24.9786 58.1485L26.8418 58.4825L26.0157 60.6446C25.8926 61.3478 26.9825 62.0685 27.9668 61.8048C28.2129 61.7345 28.3536 61.629 28.4239 61.506L29.4082 58.9571L31.0957 59.256C31.3067 59.2911 31.5176 59.2208 31.711 59.045C32.3789 58.4649 32.1856 57.1993 31.5 57.0763L30.2168 56.8478L30.92 55.0372L32.6075 55.336C32.8184 55.3712 33.0118 55.3009 33.2227 55.1251C33.8204 54.4747 33.6621 53.1915 32.9766 53.0685ZM27.6153 56.338L25.752 56.004L26.4551 54.1935L28.3184 54.5274L27.6153 56.338ZM37.5996 50.5724L34.9278 51.6095C33.6621 52.0841 34.2071 54.2462 35.4024 53.7189L35.9825 53.4903L34.3477 62.7892C34.295 63.0704 34.4004 63.3165 34.6465 63.5099C34.8926 63.7032 35.2266 63.8439 35.6133 63.9142C36 63.9845 36.3516 63.9669 36.6504 63.8614C36.9493 63.756 37.1426 63.5626 37.1778 63.2814L39.2344 51.6622C39.3926 50.9063 38.1973 50.3263 37.5996 50.5724ZM33.7852 70.1017C34.1368 68.1505 33.1875 66.9728 30.9551 66.586L27.7383 66.0235C27.4746 65.9708 27.2461 66.006 27.0352 66.0939C26.8243 66.1817 26.7012 66.3399 26.6661 66.5509L24.75 77.379C24.7149 77.5548 24.7852 77.7306 24.9258 77.8888C25.084 78.047 25.295 78.1524 25.5762 78.2052L29.1094 78.8204C30.1289 78.9962 30.9903 78.8556 31.6934 78.4161C32.3965 77.9591 32.8536 77.1153 33.0645 75.8849L33.1348 75.5333C33.2754 74.7599 33.2403 74.1446 33.0118 73.6876C32.8008 73.2306 32.4141 72.8439 31.9043 72.5274C32.9063 72.2638 33.5391 71.4552 33.7852 70.1017ZM30.9903 75.0411L30.9375 75.3048C30.7266 76.5177 30.0762 77.0274 29.0039 76.8341L27.1231 76.5001L27.8086 72.6505L29.6895 72.9845C30.2168 73.0724 30.6036 73.2833 30.8145 73.6173C31.043 73.9513 31.0957 74.4259 30.9903 75.0411ZM31.5528 70.1017C31.4825 70.5411 31.3067 70.8751 31.0254 71.086C30.7442 71.297 30.3926 71.3673 29.9707 71.297L28.1075 70.963L28.5996 68.1329L30.4453 68.4669C30.8672 68.5372 31.1661 68.7306 31.377 69.0118C31.5703 69.2931 31.6231 69.6622 31.5528 70.1017ZM40.1485 68.2032L36.8438 67.6231C36.6504 67.588 36.4746 67.6231 36.3164 67.7286C36.1582 67.8341 36.0704 67.9747 36.0352 68.1681L34.1192 78.9962C34.084 79.2071 34.1543 79.4005 34.3477 79.5587C34.5411 79.7169 34.7871 79.8224 35.0684 79.8751C35.3672 79.9278 35.6309 79.9103 35.8594 79.8224C36.0879 79.7345 36.2286 79.5939 36.2637 79.3829L37.0371 75.0411L38.4434 75.2872L39.9903 80.297C40.1133 80.6661 40.3243 80.8946 40.6407 80.9474C40.9571 81.0001 41.2911 80.9474 41.625 80.754C41.959 80.5606 42.1524 80.3321 42.1875 80.0509C42.2051 79.9454 42.1875 79.8399 42.1524 79.7696L40.6934 75.3399C41.3965 75.2521 41.9942 74.9708 42.4864 74.4962C42.9786 74.004 43.3125 73.3185 43.4707 72.4044C43.875 70.0665 42.7676 68.6778 40.1485 68.2032ZM41.2735 72.211C41.0625 73.3888 40.377 73.8634 39.1817 73.67L37.3536 73.3536L37.9688 69.7853L39.7969 70.1017C40.9922 70.3126 41.4844 71.0157 41.2735 72.211ZM52.084 71.2618C51.4864 70.5235 50.5899 70.0489 49.3946 69.838C48.1993 69.6271 47.2149 69.7677 46.3887 70.2599C45.5801 70.7521 45.0528 71.6485 44.8243 72.9669L43.9981 77.6075C43.7696 78.9259 43.9453 79.963 44.543 80.6837C45.1407 81.422 46.0371 81.8966 47.2149 82.1075C48.4102 82.3185 49.4121 82.1778 50.2207 81.6856C51.0469 81.1935 51.5567 80.297 51.8028 78.9786L52.6289 74.338C52.875 73.0196 52.6817 72.0001 52.084 71.2618ZM50.4668 73.9688L49.6407 78.6095C49.4121 79.8927 48.7266 80.42 47.5489 80.2091C46.3887 79.9981 45.9317 79.2599 46.1602 77.9942L46.9864 73.3536C47.2149 72.0704 47.9004 71.5431 49.0606 71.7364C50.2207 71.9474 50.6954 72.6856 50.4668 73.9688Z" fill="#9A8A74"/>
</g>
<defs>
<clipPath id="clip0_2_704">
<rect width="90" height="90" fill="white"/>
</clipPath>
</defs>
</svg>
